<?xml version="1.0" encoding="utf-8"?>
<!-- Generator: Adobe Illustrator 23.0.0, SVG Export Plug-In . SVG Version: 6.00 Build 0)  -->
<svg version="1.1" id="레이어_1" xmlns="http://www.w3.org/2000/svg" xmlns:xlink="http://www.w3.org/1999/xlink" x="0px"
	 y="0px" viewBox="0 0 390 266" style="enable-background:new 0 0 390 266;" xml:space="preserve">
<style type="text/css">
	.st0{fill:#232323;}
</style>
<g>
	<path class="st0" d="M161.2,84.3c-5.1,0.3-10.4,2.4-15.2,7.1c-5.4,5.4-6.4,12.8-7.4,19.3c-0.6,4.2-1.2,8.5-2.9,10.6
		c-2.5,3.1-2.8,7.2-0.8,10.6c0.4,0.7,0.9,1.3,1.4,1.8c2.1,2.2,5.1,3.1,8.1,2.5c24.5-4.2,29.8-9.5,31.6-11.2c4.8-4.8,7.6-10.9,8-17
		c2.7-0.6,5.2-1.9,7.2-3.9L257,38.4c7.3-7.2,7.3-19.1,0-26.3c-7.2-7.3-19.1-7.3-26.3,0l-65.8,65.8C163,79.7,161.9,81.9,161.2,84.3z
		 M241.2,22.6c1.5-1.4,3.8-1.4,5.3,0c1.4,1.5,1.4,3.8,0,5.3l-44.8,44.8l-5.2-5.3C196.5,67.4,241.2,22.6,241.2,22.6z M185.9,77.9
		l5.2,5.4l-10.4,10.4l-5.3-5.3L185.9,77.9z M166.8,100.9c1.6,1.6,2.5,3.5,2.5,5.6c0,2.7-1.4,5.7-3.8,8c-1,1-4.9,3-13.2,5.1
		c0.4-2.3,0.8-4.5,1.1-6.8c0.7-4.4,1.3-8.9,3.2-10.9C161.7,96.8,165.7,99.8,166.8,100.9C167.4,101.5,167.4,101.5,166.8,100.9z"/>
	<path class="st0" d="M315,97.6h-20.2V45.5c0-8.3-4.7-15.7-11.5-19.5c-4.8-2.8-10.8,1.1-10.8,6.6c0,2.6,1.2,5.1,3.4,6.3
		c2.4,1.3,4,3.8,4,6.6v52.1h-27.6c-9.4,0-17,8.7-17,19.4v55H93.8c-4.1,0-7.4-3.3-7.4-7.4V45.5c0-4.1,3.3-7.4,7.4-7.4h89.3
		c4.1,0,7.4-3.3,7.4-7.4s-3.3-7.4-7.4-7.4H93.8c-12.3,0-22.3,10-22.3,22.3v119.1c0,12.3,10,22.3,22.3,22.3H64.1
		c-4.1,0-7.4,3.3-7.4,7.4s3.3,7.4,7.4,7.4h96.6c0-4.1,3.3-7.4,7.4-7.4h30.1c4.1,0,7.4,3.3,7.4,7.4h29.6v40.1
		c0,10.7,7.7,19.4,17,19.4H315c9.4,0,17-8.7,17-19.4V117C332,106.3,324.3,97.6,315,97.6z M250.1,117c0-2.9,1.6-4.5,2.2-4.5H315
		c0.5,0,2.2,1.6,2.2,4.5v2.9h-67V117z M250.1,201.8v-67h67v89.3h-67V201.8z M315,246.5h-62.7c-0.5,0-2.2-1.6-2.2-4.5V239h67v2.9
		C317.1,244.8,315.5,246.5,315,246.5z"/>
</g>
</svg>
