<svg width="390" height="242" viewBox="0 0 390 242" fill="none" xmlns="http://www.w3.org/2000/svg">
<path d="M223.731 241.019C160.072 240.464 113.777 238.247 70.683 220.006C21.3149 199.131 -1.24617 163.952 0.0529941 116.741C1.32047 69.5861 27.7156 36.5969 77.0204 18.3004C123.917 0.891014 173.444 -1.68713 223.572 1.14051C258.491 3.10877 292.681 8.32051 323.924 22.93C373.578 46.1333 392.59 83.6411 388.724 131.517C385.048 177.092 357.259 208.224 309.729 223.194C277.06 233.478 241.792 237.415 223.731 240.991V241.019ZM195.117 222.14C231.969 221.087 269.423 218.897 304.532 205.23C344.838 189.567 366.924 162.593 367.906 123.672C368.888 84.8055 351.524 53.8123 309.76 38.2325C237.451 11.259 163.019 11.7858 89.6635 34.3514C44.9533 48.1016 21.4733 78.0413 21.4416 120.373C21.4416 160.847 43.3689 189.206 85.3857 205.424C120.019 218.786 157.03 221.281 195.117 222.14Z" fill="white"/>
<path d="M79.7764 118.406C81.9628 111.281 83.5154 101.745 87.8565 93.345C94.2573 80.9256 106.488 75.4643 122.3 76.3514C137.415 77.2108 147.808 83.8087 153.797 95.7845C160.863 109.923 161.338 124.532 156.459 139.197C150.913 155.914 137.605 165.034 119.955 164.84C101.64 164.618 89.3775 156.135 83.7055 138.92C81.7726 133.071 81.329 126.861 79.7764 118.378V118.406ZM102.496 119.653C102.084 136.785 108.516 146.183 120.367 145.823C131.426 145.49 137.858 135.981 137.858 120.069C137.858 104.794 131.711 95.7845 120.969 95.3133C108.992 94.7588 102.908 102.77 102.496 119.681V119.653Z" fill="white"/>
<path d="M229.115 117.796C231.714 110.283 233.678 100.47 238.463 91.8482C244.99 80.0386 257.38 75.5476 272.304 76.2961C286.912 77.0446 296.925 83.6702 302.914 94.8144C310.614 109.119 310.931 124.117 306.114 139.17C300.981 155.11 287.958 164.563 271.29 164.868C252.722 165.201 239.73 157.106 233.868 140.583C231.555 134.041 230.953 127 229.115 117.796ZM287.482 120.596C287.609 104.739 281.304 95.5352 270.15 95.3134C258.077 95.0639 251.55 104.212 251.898 120.929C252.247 137.395 258.394 145.989 269.674 145.851C280.765 145.712 287.356 136.37 287.482 120.624V120.596Z" fill="white"/>
</svg>
