<?xml version="1.0" encoding="utf-8"?>
<!-- Generator: Adobe Illustrator 23.0.0, SVG Export Plug-In . SVG Version: 6.00 Build 0)  -->
<svg version="1.1" id="레이어_1" xmlns="http://www.w3.org/2000/svg" xmlns:xlink="http://www.w3.org/1999/xlink" x="0px"
	 y="0px" viewBox="0 0 237 35" style="enable-background:new 0 0 237 35;" xml:space="preserve">
<style type="text/css">
	.st0{fill:#1C1C1C;}
</style>
<image style="overflow:visible;" width="255" height="35" xlink:href="더_피그_스튜디오/5.img/로고.png"  transform="matrix(1 0 0 1 -213 -258)">
</image>
<image style="overflow:visible;" width="255" height="35" xlink:href="더_피그_스튜디오/5.img/로고_흰색.png"  transform="matrix(1 0 0 1 -213 -319)">
</image>
<rect x="-423" y="-176" class="st0" width="250" height="250"/>
<g>
	<g>
		<path class="st0" d="M27.5,33.8c-7.6-0.1-13.1-0.4-18.3-2.9c-5.9-2.8-8.6-7.7-8.4-14.1C1,10.4,4.1,5.9,10,3.4
			c5.6-2.4,11.5-2.7,17.5-2.3c4.2,0.3,8.3,1,12,3c5.9,3.2,8.2,8.3,7.7,14.8c-0.4,6.2-3.8,10.5-9.4,12.5
			C33.9,32.8,29.7,33.3,27.5,33.8 M24.1,31.3c4.4-0.1,8.9-0.4,13.1-2.3c4.8-2.1,7.5-5.8,7.6-11.1c0.1-5.3-2-9.5-6.9-11.7
			c-8.6-3.7-17.5-3.6-26.3-0.5c-5.3,1.9-8.1,6-8.1,11.7C3.4,22.9,6,26.8,11,29C15.2,30.8,19.6,31.1,24.1,31.3"/>
		<path class="st0" d="M10.3,17.1c0.3-1,0.4-2.3,1-3.4c0.8-1.7,2.2-2.4,4.1-2.3c1.8,0.1,3,1,3.8,2.7c0.8,1.9,0.9,3.9,0.3,5.9
			c-0.7,2.3-2.3,3.5-4.4,3.5c-2.2,0-3.7-1.2-4.3-3.5C10.6,19.1,10.5,18.3,10.3,17.1 M13.1,17.3c0,2.3,0.7,3.6,2.1,3.6
			c1.3,0,2.1-1.3,2.1-3.5c0-2.1-0.7-3.3-2-3.4C13.8,13.9,13.1,15,13.1,17.3"/>
		<path class="st0" d="M28.2,17c0.3-1,0.5-2.4,1.1-3.5c0.8-1.6,2.3-2.2,4-2.1c1.7,0.1,2.9,1,3.7,2.5c0.9,2,1,4,0.4,6.1
			c-0.6,2.2-2.2,3.5-4.2,3.5c-2.2,0-3.8-1.1-4.5-3.3C28.5,19.2,28.4,18.3,28.2,17 M35.2,17.4c0-2.2-0.7-3.4-2.1-3.5
			c-1.4,0-2.2,1.2-2.2,3.5c0,2.2,0.8,3.4,2.1,3.4C34.4,20.8,35.1,19.5,35.2,17.4"/>
	</g>
	<g>
		<path d="M58.6,12V9.2h13.3V12h-5v13.5h-3.4V12H58.6z"/>
		<path d="M74.1,25.5V9.2h3.4v6.6h7.1V9.2h3.4v16.4h-3.4v-6.9h-7.1v6.9H74.1z"/>
		<path d="M90.7,25.5V9.2h11.1V12h-7.8v3.9h7.2v2.8h-7.2v4.1h7.8v2.8H90.7z"/>
		<path d="M109.6,25.5V9.2h6.4c1.2,0,2.3,0.2,3.2,0.7s1.5,1.1,2,1.9c0.5,0.8,0.7,1.8,0.7,2.9c0,1.1-0.2,2-0.7,2.9
			c-0.5,0.8-1.2,1.5-2,1.9c-0.9,0.5-2,0.7-3.2,0.7h-4.2v-2.7h3.8c0.7,0,1.2-0.1,1.7-0.3c0.4-0.2,0.8-0.5,1-1
			c0.2-0.4,0.3-0.9,0.3-1.4c0-0.5-0.1-1-0.3-1.4c-0.2-0.4-0.6-0.7-1-0.9c-0.4-0.2-1-0.3-1.7-0.3h-2.5v13.6H109.6z"/>
		<path d="M127.4,9.2v16.4h-3.4V9.2H127.4z"/>
		<path d="M137.5,25.7c-1.5,0-2.9-0.3-4-1c-1.2-0.7-2.1-1.7-2.7-2.9c-0.6-1.3-1-2.7-1-4.5c0-1.8,0.3-3.3,1-4.5
			c0.7-1.3,1.6-2.2,2.7-2.9c1.2-0.7,2.5-1,3.9-1c0.9,0,1.8,0.1,2.6,0.4c0.8,0.3,1.5,0.7,2.1,1.1c0.6,0.5,1.1,1.1,1.5,1.8
			c0.4,0.7,0.7,1.4,0.8,2.2H141c-0.1-0.4-0.3-0.8-0.5-1.1c-0.2-0.3-0.5-0.6-0.8-0.8c-0.3-0.2-0.6-0.4-1-0.5
			c-0.4-0.1-0.8-0.2-1.3-0.2c-0.9,0-1.6,0.2-2.3,0.6c-0.6,0.4-1.2,1-1.5,1.8c-0.4,0.8-0.5,1.8-0.5,2.9s0.2,2.1,0.5,2.9
			c0.4,0.8,0.9,1.4,1.5,1.9c0.7,0.4,1.4,0.6,2.3,0.6c0.8,0,1.5-0.1,2-0.4c0.6-0.3,1-0.7,1.3-1.2s0.5-1.1,0.5-1.9l0.7,0.1h-4.3v-2.5
			h6.8v2.1c0,1.4-0.3,2.6-0.9,3.7c-0.6,1-1.5,1.8-2.5,2.4S138.9,25.7,137.5,25.7z"/>
		<path d="M158.3,25.8c-1.3,0-2.5-0.2-3.5-0.6c-1-0.4-1.7-1-2.3-1.8c-0.5-0.8-0.8-1.8-0.8-2.9h3.3c0,0.6,0.2,1,0.5,1.4
			s0.7,0.7,1.2,0.9c0.5,0.2,1,0.3,1.7,0.3c0.6,0,1.1-0.1,1.6-0.3s0.8-0.4,1-0.7s0.4-0.7,0.4-1.1c0-0.4-0.1-0.7-0.3-0.9
			c-0.2-0.3-0.5-0.5-1-0.7s-0.9-0.3-1.6-0.5l-1.8-0.4c-1.4-0.3-2.5-0.9-3.3-1.6s-1.2-1.7-1.2-2.9c0-1,0.3-1.9,0.8-2.6
			s1.3-1.3,2.2-1.7s2-0.6,3.2-0.6c1.2,0,2.3,0.2,3.2,0.6c0.9,0.4,1.6,1,2.1,1.7s0.8,1.6,0.8,2.6h-3.2c-0.1-0.7-0.3-1.2-0.9-1.6
			c-0.5-0.4-1.2-0.6-2-0.6c-0.6,0-1,0.1-1.5,0.2c-0.4,0.2-0.7,0.4-0.9,0.7c-0.2,0.3-0.3,0.6-0.3,1c0,0.4,0.1,0.7,0.3,1
			s0.5,0.5,1,0.6c0.4,0.2,0.9,0.3,1.4,0.4l1.5,0.4c0.7,0.2,1.4,0.4,2,0.6c0.6,0.3,1.1,0.6,1.6,1c0.4,0.4,0.8,0.8,1,1.3
			s0.4,1.1,0.4,1.8c0,1-0.3,1.9-0.8,2.6c-0.5,0.7-1.2,1.3-2.2,1.7C160.8,25.6,159.6,25.8,158.3,25.8z"/>
		<path d="M166.1,12V9.2h13.3V12h-5v13.5h-3.4V12H166.1z"/>
		<path d="M188.3,25.7c-1.4,0-2.5-0.2-3.5-0.7c-1-0.5-1.8-1.2-2.4-2.1c-0.6-0.9-0.8-1.9-0.8-3.1V9.2h3.3v10.3c0,0.6,0.1,1.2,0.4,1.7
			c0.3,0.5,0.7,0.9,1.2,1.2c0.5,0.3,1.1,0.4,1.8,0.4c0.7,0,1.3-0.1,1.8-0.4c0.5-0.3,0.9-0.7,1.2-1.2c0.3-0.5,0.4-1.1,0.4-1.7V9.2
			h3.3v10.6c0,1.2-0.3,2.2-0.8,3.1c-0.6,0.9-1.3,1.6-2.4,2.1C190.9,25.5,189.7,25.7,188.3,25.7z"/>
		<path d="M201.3,9.2v16.4h-3.4V9.2H201.3z M203.7,25.5h-4.2v-2.9h4.1c1.1,0,1.9-0.2,2.7-0.6c0.7-0.4,1.2-1,1.6-1.8
			c0.4-0.8,0.5-1.8,0.5-3c0-1.2-0.2-2.2-0.5-3c-0.4-0.8-0.9-1.4-1.6-1.7c-0.7-0.4-1.6-0.6-2.6-0.6h-4.2V9.2h4.4c1.6,0,3.1,0.3,4.2,1
			s2.1,1.6,2.7,2.8c0.6,1.2,1,2.7,1,4.4c0,1.7-0.3,3.2-1,4.4c-0.6,1.2-1.6,2.2-2.7,2.8C206.7,25.2,205.3,25.5,203.7,25.5z"/>
		<path d="M217.4,9.2v16.4H214V9.2H217.4z"/>
		<path d="M227.4,25.7c-1.4,0-2.8-0.3-3.9-1c-1.2-0.7-2.1-1.6-2.7-2.9c-0.7-1.3-1-2.8-1-4.5c0-1.8,0.3-3.3,1-4.5
			c0.7-1.3,1.6-2.2,2.7-2.9c1.2-0.7,2.5-1,3.9-1c1.4,0,2.7,0.3,3.9,1c1.2,0.7,2.1,1.6,2.7,2.9c0.7,1.3,1,2.8,1,4.5
			c0,1.8-0.3,3.3-1,4.5c-0.7,1.3-1.6,2.2-2.7,2.9S228.9,25.7,227.4,25.7z M227.4,22.8c0.8,0,1.6-0.2,2.2-0.6c0.6-0.4,1.1-1,1.5-1.8
			c0.4-0.8,0.5-1.8,0.5-3c0-1.2-0.2-2.2-0.5-3c-0.4-0.8-0.9-1.4-1.5-1.8c-0.6-0.4-1.4-0.6-2.2-0.6c-0.8,0-1.6,0.2-2.2,0.6
			c-0.6,0.4-1.1,1-1.5,1.8c-0.4,0.8-0.5,1.8-0.5,3c0,1.2,0.2,2.1,0.5,3s0.9,1.4,1.5,1.8C225.8,22.6,226.6,22.8,227.4,22.8z"/>
	</g>
</g>
<g>
	<path class="st0" d="M27.5-14.2c-7.6-0.1-13.1-0.4-18.3-2.9c-5.9-2.8-8.6-7.7-8.4-14.1C1-37.6,4.1-42.1,10-44.6
		c5.6-2.4,11.5-2.7,17.5-2.3c4.2,0.3,8.3,1,12,3c5.9,3.2,8.2,8.3,7.7,14.8c-0.4,6.2-3.8,10.5-9.4,12.5
		C33.9-15.2,29.7-14.7,27.5-14.2 M24.1-16.7c4.4-0.1,8.9-0.4,13.1-2.3c4.8-2.1,7.5-5.8,7.6-11.1c0.1-5.3-2-9.5-6.9-11.7
		c-8.6-3.7-17.5-3.6-26.3-0.5c-5.3,1.9-8.1,6-8.1,11.7C3.4-25.1,6-21.2,11-19C15.2-17.2,19.6-16.9,24.1-16.7"/>
	<path class="st0" d="M10.3-30.9c0.3-1,0.4-2.3,1-3.4c0.8-1.7,2.2-2.4,4.1-2.3c1.8,0.1,3,1,3.8,2.7c0.8,1.9,0.9,3.9,0.3,5.9
		c-0.7,2.3-2.3,3.5-4.4,3.5c-2.2,0-3.7-1.2-4.3-3.5C10.6-28.9,10.5-29.7,10.3-30.9 M13.1-30.7c0,2.3,0.7,3.6,2.1,3.6
		c1.3,0,2.1-1.3,2.1-3.5c0-2.1-0.7-3.3-2-3.4C13.8-34.1,13.1-33,13.1-30.7"/>
	<path class="st0" d="M28.2-31c0.3-1,0.5-2.4,1.1-3.5c0.8-1.6,2.3-2.2,4-2.1c1.7,0.1,2.9,1,3.7,2.5c0.9,2,1,4,0.4,6.1
		c-0.6,2.2-2.2,3.5-4.2,3.5c-2.2,0-3.8-1.1-4.5-3.3C28.5-28.8,28.4-29.7,28.2-31 M35.2-30.6c0-2.2-0.7-3.4-2.1-3.5
		c-1.4,0-2.2,1.2-2.2,3.5c0,2.2,0.8,3.4,2.1,3.4C34.4-27.2,35.1-28.5,35.2-30.6"/>
</g>
<text transform="matrix(1 0 0 1 57.8135 -22.4834)" style="font-family:'Inter18pt-Bold'; font-size:22.4736px;">THE PIG STUDIO</text>
<text transform="matrix(1 0 0 1 248.8135 23.2739)" style="font-family:'AdobeMyungjoStd-Medium-KSCpc-EUC-H'; font-size:17.3566px;">글씨깬것</text>
</svg>
